<svg width="151" height="39" viewBox="0 0 151 39" fill="none" xmlns="http://www.w3.org/2000/svg">
<path d="M11.499 6.18848L18.8965 5.21191L15.3564 21.9111C16.9352 21.7972 18.4408 21.0648 19.873 19.7139C21.1751 18.4932 22.2087 16.9469 22.9736 15.0752C23.7223 13.2848 24.0967 11.4619 24.0967 9.60645C24.0967 7.65332 23.6165 6.05013 22.6562 4.79688C22.1354 4.16211 21.4762 3.67383 20.6787 3.33203C19.8812 2.97396 18.9535 2.79492 17.8955 2.79492C15.8773 2.79492 14.0625 3.07161 12.4512 3.625C10.8561 4.17839 9.49707 4.97591 8.37402 6.01758C7.25098 7.05924 6.39648 8.33691 5.81055 9.85059C5.24089 11.3643 4.95605 13.0651 4.95605 14.9531C4.95605 15.9948 5.06999 16.8249 5.29785 17.4434C5.36296 17.6549 5.44434 17.8421 5.54199 18.0049C5.6071 18.1188 5.63965 18.2327 5.63965 18.3467C3.83301 18.3467 2.51465 17.9886 1.68457 17.2725C0.756836 16.4912 0.292969 15.2298 0.292969 13.4883C0.292969 12.3978 0.528971 11.3236 1.00098 10.2656C1.47298 9.19141 2.1403 8.15788 3.00293 7.16504C3.81673 6.22103 4.78516 5.34212 5.9082 4.52832C7.04753 3.69824 8.27637 2.9821 9.59473 2.37988C12.3617 1.12663 15.1123 0.5 17.8467 0.5C21.7041 0.5 24.6989 1.50098 26.8311 3.50293C27.7751 4.39811 28.4749 5.43164 28.9307 6.60352C29.4027 7.77539 29.6387 9.02051 29.6387 10.3389C29.6387 11.9502 29.305 13.5534 28.6377 15.1484C27.9867 16.7435 27.0426 18.1676 25.8057 19.4209C24.5036 20.7555 22.9492 21.8135 21.1426 22.5947C19.3522 23.3597 17.3747 23.7422 15.21 23.7422H14.9414L11.8896 38H4.71191L11.499 6.18848ZM35.8154 38.293C33.3577 38.293 31.4616 37.6745 30.127 36.4375C28.7109 35.1191 28.0029 33.0928 28.0029 30.3584C28.0029 29.333 28.1087 28.1937 28.3203 26.9404C28.5156 25.6872 28.8167 24.4339 29.2236 23.1807C29.6794 21.7809 30.2572 20.4544 30.957 19.2012C31.6732 17.9479 32.5033 16.8411 33.4473 15.8809C35.6283 13.6673 38.3138 12.5605 41.5039 12.5605C43.5384 12.5605 45.0195 13.0488 45.9473 14.0254C46.6634 14.7904 47.0215 15.8971 47.0215 17.3457C47.0215 18.7617 46.7122 20.0964 46.0938 21.3496C45.4753 22.5866 44.6208 23.6852 43.5303 24.6455C42.4398 25.5895 41.2028 26.3464 39.8193 26.916C38.4359 27.4694 37.0036 27.7949 35.5225 27.8926C35.4411 28.7389 35.4004 29.4062 35.4004 29.8945C35.4004 31.5221 35.7096 32.6452 36.3281 33.2637C36.8652 33.8171 37.7604 34.0938 39.0137 34.0938C40.8203 34.0938 42.4723 33.6055 43.9697 32.6289C44.6045 32.222 45.2148 31.7419 45.8008 31.1885C46.3867 30.6188 47.0703 29.9027 47.8516 29.04H49.5605C47.9818 31.7093 46.167 33.8333 44.1162 35.4121C41.5934 37.3327 38.8265 38.293 35.8154 38.293ZM35.9131 25.5C36.8408 25.4349 37.7441 25.1663 38.623 24.6943C39.502 24.2223 40.2832 23.6038 40.9668 22.8389C41.6504 22.0576 42.1875 21.1868 42.5781 20.2266C42.9688 19.25 43.1641 18.2572 43.1641 17.248C43.1641 16.5807 43.0664 16.0762 42.8711 15.7344C42.6921 15.3763 42.3747 15.1973 41.9189 15.1973C41.3167 15.1973 40.7064 15.4902 40.0879 16.0762C39.4857 16.6621 38.8997 17.4678 38.3301 18.4932C37.8092 19.4535 37.3372 20.5439 36.9141 21.7646C36.4909 22.9854 36.1572 24.2305 35.9131 25.5ZM52.8076 38.293C51.2126 38.293 49.9512 37.821 49.0234 36.877C47.9818 35.8353 47.4609 34.3135 47.4609 32.3115C47.4609 31.3675 47.5911 30.277 47.8516 29.04L50.8545 15.002H49.1943L49.6094 13H51.2451L52.7588 6.09082L60.1562 5.08984L58.4473 13H61.4502L61.0596 15.002H58.0566L54.8584 29.9922C54.7282 30.4154 54.6631 30.9525 54.6631 31.6035C54.6631 32.2871 54.8177 32.7673 55.127 33.0439C55.4525 33.3206 55.9733 33.459 56.6895 33.459C57.1777 33.459 57.6497 33.3532 58.1055 33.1416C58.5775 32.9137 59.0088 32.6045 59.3994 32.2139C60.1969 31.4163 60.7992 30.3584 61.2061 29.04H63.3057C62.4105 31.5628 61.2874 33.5729 59.9365 35.0703C58.7972 36.291 57.5114 37.1699 56.0791 37.707C55.0374 38.0977 53.9469 38.293 52.8076 38.293ZM72.7295 6.18848L80.127 5.21191L76.5869 21.9111C78.1657 21.7972 79.6712 21.0648 81.1035 19.7139C82.4056 18.4932 83.4391 16.9469 84.2041 15.0752C84.9528 13.2848 85.3271 11.4619 85.3271 9.60645C85.3271 7.65332 84.847 6.05013 83.8867 4.79688C83.3659 4.16211 82.7067 3.67383 81.9092 3.33203C81.1117 2.97396 80.1839 2.79492 79.126 2.79492C77.1077 2.79492 75.293 3.07161 73.6816 3.625C72.0866 4.17839 70.7275 4.97591 69.6045 6.01758C68.4814 7.05924 67.627 8.33691 67.041 9.85059C66.4714 11.3643 66.1865 13.0651 66.1865 14.9531C66.1865 15.9948 66.3005 16.8249 66.5283 17.4434C66.5934 17.6549 66.6748 17.8421 66.7725 18.0049C66.8376 18.1188 66.8701 18.2327 66.8701 18.3467C65.0635 18.3467 63.7451 17.9886 62.915 17.2725C61.9873 16.4912 61.5234 15.2298 61.5234 13.4883C61.5234 12.3978 61.7594 11.3236 62.2314 10.2656C62.7035 9.19141 63.3708 8.15788 64.2334 7.16504C65.0472 6.22103 66.0156 5.34212 67.1387 4.52832C68.278 3.69824 69.5068 2.9821 70.8252 2.37988C73.5921 1.12663 76.3428 0.5 79.0771 0.5C82.9346 0.5 85.9294 1.50098 88.0615 3.50293C89.0055 4.39811 89.7054 5.43164 90.1611 6.60352C90.6331 7.77539 90.8691 9.02051 90.8691 10.3389C90.8691 11.9502 90.5355 13.5534 89.8682 15.1484C89.2171 16.7435 88.2731 18.1676 87.0361 19.4209C85.734 20.7555 84.1797 21.8135 82.373 22.5947C80.5827 23.3597 78.6051 23.7422 76.4404 23.7422H76.1719L73.1201 38H65.9424L72.7295 6.18848ZM98.2422 10.29C97.7051 10.29 97.1924 10.1924 96.7041 9.99707C96.2158 9.78548 95.7926 9.50065 95.4346 9.14258C95.0765 8.80078 94.7917 8.38574 94.5801 7.89746C94.3848 7.40918 94.2871 6.89648 94.2871 6.35938C94.2871 5.82227 94.3848 5.30957 94.5801 4.82129C94.7917 4.33301 95.0765 3.90169 95.4346 3.52734C95.7926 3.15299 96.2158 2.86816 96.7041 2.67285C97.1924 2.46126 97.7051 2.35547 98.2422 2.35547C98.7793 2.35547 99.292 2.46126 99.7803 2.67285C100.269 2.86816 100.7 3.15299 101.074 3.52734C101.449 3.90169 101.733 4.33301 101.929 4.82129C102.14 5.30957 102.246 5.82227 102.246 6.35938C102.246 6.89648 102.14 7.40918 101.929 7.89746C101.733 8.38574 101.449 8.80078 101.074 9.14258C100.7 9.50065 100.269 9.78548 99.7803 9.99707C99.292 10.1924 98.7793 10.29 98.2422 10.29ZM94.8486 38.293C93.2536 38.293 91.9922 37.821 91.0645 36.877C90.0228 35.8353 89.502 34.3135 89.502 32.3115C89.502 31.3675 89.6322 30.277 89.8926 29.04L93.2861 13H100.488L96.8994 29.9922C96.7692 30.4154 96.7041 30.9525 96.7041 31.6035C96.7041 32.2871 96.8587 32.7673 97.168 33.0439C97.4935 33.3206 98.0143 33.459 98.7305 33.459C99.2188 33.459 99.6908 33.3532 100.146 33.1416C100.618 32.9137 101.05 32.6045 101.44 32.2139C102.238 31.4163 102.84 30.3584 103.247 29.04H105.347C104.451 31.5628 103.328 33.5729 101.978 35.0703C100.838 36.291 99.5524 37.1699 98.1201 37.707C97.0785 38.0977 95.988 38.293 94.8486 38.293ZM110.425 38.293C107.967 38.293 106.071 37.6745 104.736 36.4375C103.32 35.1191 102.612 33.0928 102.612 30.3584C102.612 29.333 102.718 28.1937 102.93 26.9404C103.125 25.6709 103.434 24.4095 103.857 23.1562C104.85 20.1126 106.258 17.6875 108.081 15.8809C110.327 13.6673 112.988 12.5605 116.064 12.5605C118.066 12.5605 119.548 13.0407 120.508 14.001C121.257 14.766 121.631 15.8158 121.631 17.1504C121.631 18.3223 121.37 19.2337 120.85 19.8848C120.361 20.487 119.735 20.7881 118.97 20.7881C118.416 20.7881 117.83 20.5928 117.212 20.2021C117.619 19.1442 117.822 18.1595 117.822 17.248C117.822 16.6133 117.7 16.1169 117.456 15.7588C117.228 15.3844 116.886 15.1973 116.431 15.1973C115.454 15.1973 114.437 16.0599 113.379 17.7852C112.419 19.3151 111.621 21.2601 110.986 23.6201C110.335 25.9313 110.01 28.0228 110.01 29.8945C110.01 31.5221 110.319 32.6452 110.938 33.2637C111.475 33.8171 112.37 34.0938 113.623 34.0938C115.43 34.0938 117.082 33.6055 118.579 32.6289C119.214 32.222 119.824 31.7419 120.41 31.1885C120.996 30.6188 121.68 29.9027 122.461 29.04H124.17C122.591 31.7093 120.776 33.8333 118.726 35.4121C116.203 37.3327 113.436 38.293 110.425 38.293ZM141.26 38.293C139.193 38.293 137.622 37.8047 136.548 36.8281C135.49 35.8516 134.961 34.4437 134.961 32.6045C134.961 31.807 135.059 30.9362 135.254 29.9922L135.669 28.0391C135.799 27.5345 135.864 26.9242 135.864 26.208C135.864 25.4268 135.726 24.8327 135.449 24.4258C135.173 24.0026 134.709 23.791 134.058 23.791C133.521 23.791 132.959 23.9456 132.373 24.2549C131.787 24.5641 131.12 25.028 130.371 25.6465L127.759 38H120.557L127.808 3.99121L135.205 2.99023L131.47 20.5928L141.113 13H146.069L136.06 19.958C136.629 19.8115 137.183 19.7383 137.72 19.7383C138.631 19.7383 139.429 19.8929 140.112 20.2021C140.812 20.4951 141.398 20.9183 141.87 21.4717C142.31 21.9925 142.643 22.611 142.871 23.3271C143.099 24.027 143.213 24.7839 143.213 25.5977C143.213 26.3626 143.148 26.9974 143.018 27.502L142.456 29.9922C142.293 30.5293 142.212 31.0664 142.212 31.6035C142.212 32.1732 142.358 32.6289 142.651 32.9707C142.944 33.2962 143.449 33.459 144.165 33.459C145.158 33.459 145.996 33.0521 146.68 32.2383C147.201 31.6198 147.762 30.5537 148.364 29.04H150.464C149.243 32.7347 147.64 35.3226 145.654 36.8037C144.352 37.7965 142.887 38.293 141.26 38.293Z" fill="#521AFB"/>
</svg>
